<?xml version="1.0" standalone="no"?>
<!DOCTYPE svg PUBLIC "-//W3C//DTD SVG 20010904//EN"
 "http://www.w3.org/TR/2001/REC-SVG-20010904/DTD/svg10.dtd">
<svg version="1.0" xmlns="http://www.w3.org/2000/svg"
 width="600.000000pt" height="426.000000pt" viewBox="0 0 600.000000 426.000000"
 preserveAspectRatio="xMidYMid meet">

<g transform="translate(0.000000,426.000000) scale(0.100000,-0.100000)"
fill="#000000" stroke="none">
<path d="M1019 2563 c-109 -109 -211 -220 -228 -248 -71 -113 -92 -285 -51
-416 68 -219 285 -364 517 -345 180 15 328 116 408 280 68 140 68 290 -1 436
-32 67 -55 95 -242 282 l-207 209 -196 -198z m392 -50 c202 -206 236 -257 259
-383 51 -280 -169 -541 -455 -540 -128 1 -230 44 -323 136 -140 140 -175 343
-91 524 26 55 59 94 222 258 105 105 194 192 198 192 3 0 89 -84 190 -187z"/>
<path d="M1100 2399 c-50 -23 -105 -70 -126 -111 -25 -47 -19 -55 44 -62 31
-4 65 -9 75 -12 12 -4 17 0 17 13 2 68 107 97 161 44 33 -33 35 -50 14 -91
-16 -31 -46 -42 -120 -42 l-45 0 0 -64 0 -64 70 0 c62 0 74 -3 95 -25 57 -56
16 -145 -67 -145 -54 0 -106 31 -122 71 -11 31 -11 31 -69 24 -84 -9 -90 -13
-83 -48 14 -69 75 -134 155 -162 53 -19 182 -19 234 -1 96 35 153 117 145 208
-6 57 -29 93 -81 127 l-37 24 34 23 c66 45 87 150 43 215 -27 40 -76 75 -126
89 -61 17 -161 12 -211 -11z"/>
<path d="M2842 2499 c-109 -33 -169 -193 -127 -337 27 -90 80 -135 171 -147
110 -15 197 40 228 143 7 21 5 22 -42 22 -46 0 -51 -2 -62 -30 -36 -88 -157
-78 -196 16 -16 39 -18 124 -4 176 29 102 162 121 200 28 11 -28 16 -30 62
-30 50 0 50 0 43 28 -11 46 -51 98 -90 116 -45 22 -138 29 -183 15z"/>
<path d="M3688 2501 c-55 -18 -95 -51 -123 -103 -26 -47 -29 -63 -29 -138 0
-74 3 -92 28 -136 42 -77 105 -114 196 -114 137 0 224 97 223 250 0 110 -39
186 -116 226 -34 18 -142 27 -179 15z m146 -102 c45 -39 63 -113 46 -193 -26
-126 -170 -160 -227 -53 -22 40 -24 158 -4 206 31 73 124 94 185 40z"/>
<path d="M5018 2498 c-45 -12 -97 -68 -100 -106 -6 -116 19 -142 167 -177 85
-19 115 -38 115 -70 0 -35 -35 -55 -98 -55 -43 0 -58 5 -77 25 -14 13 -25 29
-25 35 0 5 -20 10 -45 10 -40 0 -45 -2 -45 -22 0 -37 35 -83 76 -103 52 -26
185 -27 231 -2 92 49 106 183 25 230 -18 11 -74 30 -124 42 -101 26 -124 41
-115 77 13 51 119 66 162 23 14 -13 25 -29 25 -35 0 -5 21 -10 46 -10 l47 0
-7 33 c-16 86 -140 137 -258 105z"/>
<path d="M1850 2493 c0 -4 35 -112 77 -240 l78 -233 46 0 47 0 81 241 80 240
-52 -3 -51 -3 -52 -180 c-33 -116 -53 -173 -57 -160 -3 11 -18 63 -32 115 -14
52 -35 125 -46 163 l-20 67 -49 0 c-28 0 -50 -3 -50 -7z"/>
<path d="M3140 2460 l0 -40 70 0 70 0 0 -200 0 -200 50 0 50 0 0 200 0 200 70
0 70 0 0 40 0 40 -190 0 -190 0 0 -40z"/>
<path d="M4050 2260 l0 -240 50 0 50 0 0 95 0 95 68 0 c94 0 103 -8 111 -106
l6 -79 58 -3 c53 -3 57 -2 49 15 -5 10 -12 51 -14 91 -5 62 -10 78 -32 101
l-26 28 24 11 c31 14 51 76 42 126 -8 44 -54 91 -97 100 -17 3 -89 6 -160 6
l-129 0 0 -240z m270 140 c24 -24 26 -67 3 -92 -13 -14 -31 -18 -95 -18 l-78
0 0 65 0 65 75 0 c62 0 79 -4 95 -20z"/>
<path d="M2300 2255 l0 -235 180 0 180 0 0 45 0 45 -130 0 -130 0 0 60 0 60
115 0 115 0 0 40 0 40 -115 0 -115 0 0 50 0 50 125 0 125 0 0 40 0 40 -175 0
-175 0 0 -235z"/>
<path d="M4510 2255 l0 -235 180 0 180 0 0 45 0 45 -130 0 -130 0 0 60 0 60
115 0 115 0 0 40 0 40 -115 0 -115 0 0 50 0 50 125 0 125 0 0 40 0 40 -175 0
-175 0 0 -235z"/>
<path d="M1920 1740 c0 -82 3 -100 15 -100 11 0 15 12 15 45 l0 45 40 0 c43 0
60 -18 60 -64 0 -19 5 -26 20 -26 17 0 19 3 10 19 -5 11 -10 31 -10 45 0 14
-5 28 -10 31 -6 4 -4 12 5 21 42 43 -1 84 -87 84 l-58 0 0 -100z m128 51 c5
-29 -12 -41 -60 -41 -37 0 -38 1 -38 36 l0 35 48 -3 c41 -3 47 -6 50 -27z"/>
<path d="M2120 1740 l0 -100 75 0 c43 0 75 4 75 10 0 6 -27 10 -60 10 l-60 0
0 35 0 35 55 0 c30 0 55 5 55 10 0 6 -25 10 -55 10 l-55 0 0 35 0 35 60 0 c33
0 60 4 60 10 0 6 -32 10 -75 10 l-75 0 0 -100z"/>
<path d="M2355 1828 c-47 -27 -64 -87 -41 -143 18 -42 56 -60 106 -49 19 5 43
7 53 6 14 -1 17 7 17 48 l0 50 -45 0 c-25 0 -45 -4 -45 -10 0 -5 14 -10 30
-10 22 0 30 -5 30 -18 0 -44 -72 -69 -103 -37 -20 19 -30 68 -22 97 19 61 81
79 111 33 18 -28 34 -33 34 -11 0 22 -49 56 -79 56 -14 0 -35 -6 -46 -12z"/>
<path d="M2530 1740 l0 -100 75 0 c43 0 75 4 75 10 0 6 -27 10 -60 10 l-60 0
0 35 0 35 55 0 c30 0 55 5 55 10 0 6 -25 10 -55 10 l-55 0 0 35 0 35 60 0 c33
0 60 4 60 10 0 6 -32 10 -75 10 l-75 0 0 -100z"/>
<path d="M2720 1740 c0 -82 3 -100 15 -100 12 0 15 15 15 78 l0 77 51 -77 c68
-107 79 -104 79 22 0 60 -4 100 -10 100 -6 0 -10 -32 -10 -75 0 -41 -3 -75 -7
-75 -5 0 -28 34 -53 75 -29 48 -51 75 -62 75 -16 0 -18 -11 -18 -100z"/>
<path d="M2930 1740 l0 -100 75 0 c43 0 75 4 75 10 0 6 -27 10 -60 10 l-60 0
0 35 0 35 55 0 c30 0 55 5 55 10 0 6 -25 10 -55 10 l-55 0 0 35 0 35 60 0 c33
0 60 4 60 10 0 6 -32 10 -75 10 l-75 0 0 -100z"/>
<path d="M3120 1740 c0 -82 3 -100 15 -100 11 0 15 12 15 45 l0 45 40 0 c43 0
60 -18 60 -64 0 -19 5 -26 20 -26 17 0 19 3 10 19 -5 11 -10 31 -10 45 0 14
-5 28 -10 31 -6 4 -4 12 5 21 42 43 -1 84 -87 84 l-58 0 0 -100z m128 51 c5
-29 -12 -41 -60 -41 -37 0 -38 1 -38 36 l0 35 48 -3 c41 -3 47 -6 50 -27z"/>
<path d="M3373 1823 c-3 -10 -19 -52 -35 -93 -31 -83 -33 -90 -17 -90 5 0 15
14 20 30 10 27 15 30 54 30 40 0 44 -2 50 -30 4 -17 13 -30 21 -30 17 0 17 0
-25 117 -29 78 -54 103 -68 66z m47 -90 c0 -8 -12 -13 -30 -13 l-30 0 15 36
c8 20 15 39 16 43 1 10 28 -53 29 -66z"/>
<path d="M3470 1830 c0 -5 16 -10 35 -10 l35 0 0 -90 c0 -73 3 -90 15 -90 12
0 15 17 15 90 l0 90 35 0 c19 0 35 5 35 10 0 6 -35 10 -85 10 -50 0 -85 -4
-85 -10z"/>
<path d="M3670 1740 c0 -82 3 -100 15 -100 12 0 15 18 15 100 0 82 -3 100 -15
100 -12 0 -15 -18 -15 -100z"/>
<path d="M3769 1741 c24 -67 41 -101 51 -101 10 0 27 34 51 101 29 79 33 99
21 97 -10 -2 -25 -32 -41 -81 -14 -42 -28 -77 -31 -77 -3 0 -17 35 -31 77 -16
49 -31 79 -41 81 -13 2 -8 -17 21 -97z"/>
<path d="M3940 1740 l0 -100 75 0 c43 0 75 4 75 10 0 6 -27 10 -60 10 l-60 0
0 35 0 35 55 0 c30 0 55 5 55 10 0 6 -25 10 -55 10 l-55 0 0 35 0 35 60 0 c33
0 60 4 60 10 0 6 -32 10 -75 10 l-75 0 0 -100z"/>
<path d="M4210 1740 l0 -100 54 0 c75 0 98 20 104 93 4 50 2 58 -21 81 -22 22
-35 26 -82 26 l-55 0 0 -100z m114 64 c22 -21 21 -102 -1 -126 -9 -10 -30 -18
-50 -18 l-33 0 0 80 0 80 34 0 c19 0 42 -7 50 -16z"/>
<path d="M4410 1740 l0 -100 75 0 c43 0 75 4 75 10 0 6 -27 10 -60 10 l-60 0
0 35 0 35 55 0 c30 0 55 5 55 10 0 6 -25 10 -55 10 l-55 0 0 35 0 35 60 0 c33
0 60 4 60 10 0 6 -32 10 -75 10 l-75 0 0 -100z"/>
<path d="M4620 1820 c-23 -23 -26 -53 -7 -67 6 -5 33 -17 59 -27 49 -18 66
-40 47 -62 -22 -27 -99 -10 -99 21 0 8 -7 15 -15 15 -22 0 -18 -18 11 -47 21
-21 32 -25 65 -20 51 7 69 22 69 58 0 32 -8 38 -70 59 -33 11 -46 21 -48 37
-6 42 74 44 85 3 3 -11 12 -20 19 -20 21 0 17 18 -11 45 -30 31 -77 33 -105 5z"/>
<path d="M4800 1740 c0 -60 4 -100 10 -100 6 0 10 40 10 100 0 60 -4 100 -10
100 -6 0 -10 -40 -10 -100z"/>
<path d="M4915 1828 c-47 -27 -64 -87 -41 -143 18 -42 56 -60 106 -49 19 5 43
7 53 6 14 -1 17 7 17 48 l0 50 -45 0 c-25 0 -45 -4 -45 -10 0 -5 14 -10 30
-10 22 0 30 -5 30 -18 0 -44 -72 -69 -103 -37 -20 19 -30 68 -22 97 19 61 81
79 111 33 18 -28 34 -33 34 -11 0 22 -49 56 -79 56 -14 0 -35 -6 -46 -12z"/>
<path d="M5100 1740 c0 -118 18 -136 22 -22 l3 77 50 -77 c71 -111 85 -107 85
22 0 81 -3 100 -15 100 -11 0 -15 -18 -17 -77 l-3 -78 -48 78 c-66 106 -77
103 -77 -23z"/>
</g>
</svg>
